<mxfile host="Electron" modified="2024-06-14T06:54:08.651Z" agent="Mozilla/5.0 (Windows NT 10.0; Win64; x64) AppleWebKit/537.36 (KHTML, like Gecko) draw.io/24.5.3 Chrome/124.0.6367.207 Electron/30.0.6 Safari/537.36" etag="kPppvCbdfaxk8ZST_Rie" version="24.5.3" type="device">
  <diagram id="prtHgNgQTEPvFCAcTncT" name="Page-1">
    <mxGraphModel dx="1221" dy="823" grid="1" gridSize="10" guides="1" tooltips="1" connect="1" arrows="1" fold="1" page="1" pageScale="1" pageWidth="827" pageHeight="1169" math="0" shadow="0">
      <root>
        <mxCell id="0" />
        <mxCell id="1" parent="0" />
        <mxCell id="dNxyNK7c78bLwvsdeMH5-11" value="WHY-OSPF" style="swimlane;html=1;startSize=20;horizontal=1;containerType=tree;glass=0;" parent="1" vertex="1">
          <mxGeometry x="80" y="200" width="710" height="645" as="geometry" />
        </mxCell>
        <mxCell id="AUI90E-4TA1sdNI6hoUy-6" style="edgeStyle=orthogonalEdgeStyle;rounded=0;orthogonalLoop=1;jettySize=auto;html=1;exitX=0.5;exitY=1;exitDx=0;exitDy=0;entryX=0.5;entryY=0;entryDx=0;entryDy=0;" edge="1" parent="dNxyNK7c78bLwvsdeMH5-11" source="AUI90E-4TA1sdNI6hoUy-1" target="AUI90E-4TA1sdNI6hoUy-4">
          <mxGeometry relative="1" as="geometry" />
        </mxCell>
        <mxCell id="AUI90E-4TA1sdNI6hoUy-7" style="edgeStyle=orthogonalEdgeStyle;rounded=0;orthogonalLoop=1;jettySize=auto;html=1;exitX=0.5;exitY=1;exitDx=0;exitDy=0;entryX=0.5;entryY=0;entryDx=0;entryDy=0;" edge="1" parent="dNxyNK7c78bLwvsdeMH5-11" source="AUI90E-4TA1sdNI6hoUy-1" target="AUI90E-4TA1sdNI6hoUy-3">
          <mxGeometry relative="1" as="geometry" />
        </mxCell>
        <mxCell id="AUI90E-4TA1sdNI6hoUy-1" value="&lt;b&gt;&lt;font style=&quot;font-size: 14px;&quot;&gt;OSPF&lt;/font&gt;&lt;/b&gt;" style="rounded=1;whiteSpace=wrap;html=1;" vertex="1" parent="dNxyNK7c78bLwvsdeMH5-11">
          <mxGeometry x="305" y="50" width="120" height="60" as="geometry" />
        </mxCell>
        <mxCell id="AUI90E-4TA1sdNI6hoUy-11" style="edgeStyle=orthogonalEdgeStyle;rounded=0;orthogonalLoop=1;jettySize=auto;html=1;exitX=0.5;exitY=1;exitDx=0;exitDy=0;entryX=0.5;entryY=0;entryDx=0;entryDy=0;" edge="1" parent="dNxyNK7c78bLwvsdeMH5-11" source="AUI90E-4TA1sdNI6hoUy-2" target="AUI90E-4TA1sdNI6hoUy-8">
          <mxGeometry relative="1" as="geometry" />
        </mxCell>
        <mxCell id="AUI90E-4TA1sdNI6hoUy-2" value="&lt;b&gt;&lt;font style=&quot;font-size: 14px;&quot;&gt;报文收发&lt;/font&gt;&lt;/b&gt;" style="rounded=0;whiteSpace=wrap;html=1;" vertex="1" parent="dNxyNK7c78bLwvsdeMH5-11">
          <mxGeometry x="110" y="150" width="120" height="60" as="geometry" />
        </mxCell>
        <mxCell id="AUI90E-4TA1sdNI6hoUy-12" style="edgeStyle=orthogonalEdgeStyle;rounded=0;orthogonalLoop=1;jettySize=auto;html=1;exitX=0.5;exitY=1;exitDx=0;exitDy=0;entryX=0.5;entryY=0;entryDx=0;entryDy=0;" edge="1" parent="dNxyNK7c78bLwvsdeMH5-11" source="AUI90E-4TA1sdNI6hoUy-3" target="AUI90E-4TA1sdNI6hoUy-9">
          <mxGeometry relative="1" as="geometry" />
        </mxCell>
        <mxCell id="AUI90E-4TA1sdNI6hoUy-3" value="&lt;b&gt;&lt;font style=&quot;font-size: 14px;&quot;&gt;LSA处理&lt;/font&gt;&lt;/b&gt;" style="rounded=0;whiteSpace=wrap;html=1;" vertex="1" parent="dNxyNK7c78bLwvsdeMH5-11">
          <mxGeometry x="305" y="150" width="120" height="60" as="geometry" />
        </mxCell>
        <mxCell id="AUI90E-4TA1sdNI6hoUy-13" style="edgeStyle=orthogonalEdgeStyle;rounded=0;orthogonalLoop=1;jettySize=auto;html=1;exitX=0.5;exitY=1;exitDx=0;exitDy=0;entryX=0.5;entryY=0;entryDx=0;entryDy=0;" edge="1" parent="dNxyNK7c78bLwvsdeMH5-11" source="AUI90E-4TA1sdNI6hoUy-4" target="AUI90E-4TA1sdNI6hoUy-10">
          <mxGeometry relative="1" as="geometry" />
        </mxCell>
        <mxCell id="AUI90E-4TA1sdNI6hoUy-4" value="&lt;b&gt;&lt;font style=&quot;font-size: 14px;&quot;&gt;路由管理&lt;/font&gt;&lt;/b&gt;" style="rounded=0;whiteSpace=wrap;html=1;" vertex="1" parent="dNxyNK7c78bLwvsdeMH5-11">
          <mxGeometry x="500" y="150" width="120" height="60" as="geometry" />
        </mxCell>
        <mxCell id="AUI90E-4TA1sdNI6hoUy-5" style="edgeStyle=orthogonalEdgeStyle;rounded=0;orthogonalLoop=1;jettySize=auto;html=1;exitX=0.5;exitY=1;exitDx=0;exitDy=0;entryX=0.5;entryY=0;entryDx=0;entryDy=0;" edge="1" parent="dNxyNK7c78bLwvsdeMH5-11" source="AUI90E-4TA1sdNI6hoUy-1" target="AUI90E-4TA1sdNI6hoUy-2">
          <mxGeometry relative="1" as="geometry" />
        </mxCell>
        <mxCell id="AUI90E-4TA1sdNI6hoUy-20" style="edgeStyle=orthogonalEdgeStyle;rounded=0;orthogonalLoop=1;jettySize=auto;html=1;exitX=0.5;exitY=1;exitDx=0;exitDy=0;entryX=0.5;entryY=0;entryDx=0;entryDy=0;" edge="1" parent="dNxyNK7c78bLwvsdeMH5-11" source="AUI90E-4TA1sdNI6hoUy-8" target="AUI90E-4TA1sdNI6hoUy-19">
          <mxGeometry relative="1" as="geometry" />
        </mxCell>
        <mxCell id="AUI90E-4TA1sdNI6hoUy-22" style="edgeStyle=orthogonalEdgeStyle;rounded=0;orthogonalLoop=1;jettySize=auto;html=1;exitX=0.5;exitY=1;exitDx=0;exitDy=0;entryX=0.5;entryY=0;entryDx=0;entryDy=0;" edge="1" parent="dNxyNK7c78bLwvsdeMH5-11" source="AUI90E-4TA1sdNI6hoUy-8" target="AUI90E-4TA1sdNI6hoUy-21">
          <mxGeometry relative="1" as="geometry" />
        </mxCell>
        <mxCell id="AUI90E-4TA1sdNI6hoUy-8" value="&lt;b&gt;&lt;font style=&quot;font-size: 12px;&quot;&gt;messageController&lt;/font&gt;&lt;/b&gt;" style="rounded=0;whiteSpace=wrap;html=1;" vertex="1" parent="dNxyNK7c78bLwvsdeMH5-11">
          <mxGeometry x="110" y="250" width="120" height="60" as="geometry" />
        </mxCell>
        <mxCell id="AUI90E-4TA1sdNI6hoUy-17" style="edgeStyle=orthogonalEdgeStyle;rounded=0;orthogonalLoop=1;jettySize=auto;html=1;exitX=0.5;exitY=1;exitDx=0;exitDy=0;entryX=0.5;entryY=0;entryDx=0;entryDy=0;" edge="1" parent="dNxyNK7c78bLwvsdeMH5-11" source="AUI90E-4TA1sdNI6hoUy-9" target="AUI90E-4TA1sdNI6hoUy-15">
          <mxGeometry relative="1" as="geometry" />
        </mxCell>
        <mxCell id="AUI90E-4TA1sdNI6hoUy-9" value="&lt;b&gt;LSAController&lt;/b&gt;" style="rounded=0;whiteSpace=wrap;html=1;" vertex="1" parent="dNxyNK7c78bLwvsdeMH5-11">
          <mxGeometry x="305" y="250" width="120" height="60" as="geometry" />
        </mxCell>
        <mxCell id="AUI90E-4TA1sdNI6hoUy-18" style="edgeStyle=orthogonalEdgeStyle;rounded=0;orthogonalLoop=1;jettySize=auto;html=1;exitX=0.5;exitY=1;exitDx=0;exitDy=0;entryX=0.5;entryY=0;entryDx=0;entryDy=0;" edge="1" parent="dNxyNK7c78bLwvsdeMH5-11" source="AUI90E-4TA1sdNI6hoUy-10" target="AUI90E-4TA1sdNI6hoUy-16">
          <mxGeometry relative="1" as="geometry" />
        </mxCell>
        <mxCell id="AUI90E-4TA1sdNI6hoUy-10" value="&lt;b&gt;routeController&lt;/b&gt;" style="rounded=0;whiteSpace=wrap;html=1;" vertex="1" parent="dNxyNK7c78bLwvsdeMH5-11">
          <mxGeometry x="500" y="250" width="120" height="60" as="geometry" />
        </mxCell>
        <mxCell id="AUI90E-4TA1sdNI6hoUy-15" value="&lt;b&gt;&lt;font style=&quot;font-size: 14px;&quot;&gt;LSDB&lt;/font&gt;&lt;/b&gt;" style="rhombus;whiteSpace=wrap;html=1;" vertex="1" parent="dNxyNK7c78bLwvsdeMH5-11">
          <mxGeometry x="325" y="360" width="80" height="80" as="geometry" />
        </mxCell>
        <mxCell id="AUI90E-4TA1sdNI6hoUy-16" value="&lt;b&gt;&lt;font style=&quot;font-size: 14px;&quot;&gt;route&lt;/font&gt;&lt;/b&gt;" style="rhombus;whiteSpace=wrap;html=1;" vertex="1" parent="dNxyNK7c78bLwvsdeMH5-11">
          <mxGeometry x="520" y="360" width="80" height="80" as="geometry" />
        </mxCell>
        <mxCell id="AUI90E-4TA1sdNI6hoUy-19" value="&lt;font style=&quot;font-size: 12px;&quot;&gt;&lt;b&gt;报文接收&lt;/b&gt;&lt;/font&gt;" style="rhombus;whiteSpace=wrap;html=1;" vertex="1" parent="dNxyNK7c78bLwvsdeMH5-11">
          <mxGeometry x="190" y="360" width="80" height="80" as="geometry" />
        </mxCell>
        <mxCell id="AUI90E-4TA1sdNI6hoUy-21" value="&lt;b&gt;报文发送&lt;/b&gt;" style="rhombus;whiteSpace=wrap;html=1;" vertex="1" parent="dNxyNK7c78bLwvsdeMH5-11">
          <mxGeometry x="70" y="360" width="80" height="80" as="geometry" />
        </mxCell>
        <mxCell id="AUI90E-4TA1sdNI6hoUy-27" style="edgeStyle=orthogonalEdgeStyle;rounded=0;orthogonalLoop=1;jettySize=auto;html=1;exitX=1;exitY=0.5;exitDx=0;exitDy=0;entryX=0;entryY=0.5;entryDx=0;entryDy=0;endArrow=classic;endFill=1;startArrow=classic;startFill=1;" edge="1" parent="dNxyNK7c78bLwvsdeMH5-11" source="AUI90E-4TA1sdNI6hoUy-24" target="AUI90E-4TA1sdNI6hoUy-25">
          <mxGeometry relative="1" as="geometry" />
        </mxCell>
        <mxCell id="AUI90E-4TA1sdNI6hoUy-24" value="&lt;b&gt;neighbor&lt;/b&gt;" style="ellipse;whiteSpace=wrap;html=1;aspect=fixed;" vertex="1" parent="dNxyNK7c78bLwvsdeMH5-11">
          <mxGeometry x="77.5" y="460" width="65" height="65" as="geometry" />
        </mxCell>
        <mxCell id="AUI90E-4TA1sdNI6hoUy-25" value="&lt;b&gt;interface&lt;/b&gt;" style="ellipse;whiteSpace=wrap;html=1;aspect=fixed;" vertex="1" parent="dNxyNK7c78bLwvsdeMH5-11">
          <mxGeometry x="197.5" y="460" width="65" height="65" as="geometry" />
        </mxCell>
        <mxCell id="AUI90E-4TA1sdNI6hoUy-28" value="" style="shape=curlyBracket;whiteSpace=wrap;html=1;rounded=1;labelPosition=left;verticalLabelPosition=middle;align=right;verticalAlign=middle;rotation=-90;" vertex="1" parent="dNxyNK7c78bLwvsdeMH5-11">
          <mxGeometry x="165" y="400" width="10" height="90" as="geometry" />
        </mxCell>
        <mxCell id="AUI90E-4TA1sdNI6hoUy-33" value="" style="shape=mxgraph.arrows.arrow_down;html=1;verticalLabelPosition=bottom;verticalAlign=top;strokeWidth=2;strokeColor=#000000;" vertex="1" parent="dNxyNK7c78bLwvsdeMH5-11">
          <mxGeometry x="157.5" y="450" width="25" height="27" as="geometry" />
        </mxCell>
        <mxCell id="AUI90E-4TA1sdNI6hoUy-35" value="&lt;b&gt;路由计算&lt;/b&gt;" style="ellipse;whiteSpace=wrap;html=1;aspect=fixed;" vertex="1" parent="dNxyNK7c78bLwvsdeMH5-11">
          <mxGeometry x="580" y="460" width="65" height="65" as="geometry" />
        </mxCell>
        <mxCell id="AUI90E-4TA1sdNI6hoUy-36" value="&lt;b&gt;路由表维护&lt;/b&gt;" style="ellipse;whiteSpace=wrap;html=1;aspect=fixed;" vertex="1" parent="dNxyNK7c78bLwvsdeMH5-11">
          <mxGeometry x="480" y="460" width="65" height="65" as="geometry" />
        </mxCell>
        <mxCell id="AUI90E-4TA1sdNI6hoUy-37" value="&lt;b&gt;RouterLSA&lt;/b&gt;" style="ellipse;whiteSpace=wrap;html=1;aspect=fixed;" vertex="1" parent="dNxyNK7c78bLwvsdeMH5-11">
          <mxGeometry x="290" y="460" width="65" height="65" as="geometry" />
        </mxCell>
        <mxCell id="AUI90E-4TA1sdNI6hoUy-38" value="" style="shape=curlyBracket;whiteSpace=wrap;html=1;rounded=1;labelPosition=left;verticalLabelPosition=middle;align=right;verticalAlign=middle;rotation=90;" vertex="1" parent="dNxyNK7c78bLwvsdeMH5-11">
          <mxGeometry x="550" y="410" width="20" height="80" as="geometry" />
        </mxCell>
        <mxCell id="AUI90E-4TA1sdNI6hoUy-39" value="&lt;b&gt;NetLSA&lt;/b&gt;" style="ellipse;whiteSpace=wrap;html=1;aspect=fixed;" vertex="1" parent="dNxyNK7c78bLwvsdeMH5-11">
          <mxGeometry x="380" y="460" width="65" height="65" as="geometry" />
        </mxCell>
        <mxCell id="AUI90E-4TA1sdNI6hoUy-40" value="" style="shape=curlyBracket;whiteSpace=wrap;html=1;rounded=1;labelPosition=left;verticalLabelPosition=middle;align=right;verticalAlign=middle;rotation=90;" vertex="1" parent="dNxyNK7c78bLwvsdeMH5-11">
          <mxGeometry x="354.38" y="413.13" width="21.25" height="75" as="geometry" />
        </mxCell>
        <mxCell id="AUI90E-4TA1sdNI6hoUy-44" value="" style="shape=mxgraph.arrows.arrow_down;html=1;verticalLabelPosition=bottom;verticalAlign=top;strokeWidth=2;strokeColor=#000000;rotation=-90;" vertex="1" parent="dNxyNK7c78bLwvsdeMH5-11">
          <mxGeometry x="280" y="431.5" width="25" height="27" as="geometry" />
        </mxCell>
        <mxCell id="AUI90E-4TA1sdNI6hoUy-45" value="" style="shape=mxgraph.arrows.arrow_down;html=1;verticalLabelPosition=bottom;verticalAlign=top;strokeWidth=2;strokeColor=#000000;rotation=-90;" vertex="1" parent="dNxyNK7c78bLwvsdeMH5-11">
          <mxGeometry x="445" y="431.5" width="25" height="27" as="geometry" />
        </mxCell>
      </root>
    </mxGraphModel>
  </diagram>
</mxfile>
